<svg xmlns="http://www.w3.org/2000/svg" viewBox="0 0 764 221"><defs><style>.cls-1{fill:#939393;}.cls-2{fill:#2e7fad;}.cls-3{fill:#fff;}</style></defs><title>block-logos-mini</title><g id="Layer_8" data-name="Layer 8"><polygon class="cls-1" points="26 75 26 52 127 19 228 52 228 97 27 97 26 75"/><polyline class="cls-2" points="127 19 22.95 49.67 22.95 162.76 127 208 127 94 29.74 53.06"/><polyline class="cls-2" points="127 19 231.05 49.67 231.05 162.76 127 208 127 94 224.26 53.06"/><path class="cls-3" d="M256.88,188.58a4.94,4.94,0,0,1-5.72-5.73V102.17a7.58,7.58,0,0,1,.43-2.74,4.63,4.63,0,0,1,1.31-1.87L269,84a4.87,4.87,0,0,1,1.68-.81,8.07,8.07,0,0,1,2.31-.31h39.71q13,0,19.06,5t6.1,15.25v6a21,21,0,0,1-1.19,7.47,11.23,11.23,0,0,1-3.55,5l-.37.25a15.8,15.8,0,0,1,10.09,6.41q3.36,4.92,3.36,13.64v11.45a25.88,25.88,0,0,1-1.62,9.65,17,17,0,0,1-4.86,6.79l-16.06,13.57a20.5,20.5,0,0,1-7.84,3.92,41.94,41.94,0,0,1-11.08,1.31Zm63.88-14.82q12.33,0,18.24-5t5.91-15.44V141.89q0-9.09-3.86-13.82t-11.82-5.48a11.16,11.16,0,0,0,5.54-4.92,17.73,17.73,0,0,0,1.8-8.53v-6q0-9.7-5.85-14.38t-18.06-4.67H273a3.85,3.85,0,0,0-4.49,4.49v80.68a3.84,3.84,0,0,0,4.49,4.48Zm-5-11.2h-33.5V95.32h25.28a27.25,27.25,0,0,1,8.34,1.06,11.9,11.9,0,0,1,5,2.86,9.49,9.49,0,0,1,2.37,4.17,20.27,20.27,0,0,1,.62,5.11v8a17.3,17.3,0,0,1-1.31,6.84c-.87,2.08-3.09,3.57-6.66,4.49a27.21,27.21,0,0,1,8.34,1.06,11.33,11.33,0,0,1,5,3,9.71,9.71,0,0,1,2.3,4.55,27.56,27.56,0,0,1,.56,5.73v8a19.57,19.57,0,0,1-.62,5.05,8.45,8.45,0,0,1-2.31,3.92,11.6,11.6,0,0,1-4.92,2.55A31,31,0,0,1,315.78,162.56Zm-8.22-66h-24v31.26h24a27.77,27.77,0,0,0,8.09-.94,10.88,10.88,0,0,0,4.55-2.49,7.05,7.05,0,0,0,2-3.61,20.67,20.67,0,0,0,.44-4.29v-8a12.93,12.93,0,0,0-2.87-8.47Q316.9,96.57,307.56,96.56Zm8.34,32.5H283.53v32.25h32.25q9.33,0,12.2-3.05a11.42,11.42,0,0,0,2.86-8.16v-8a15.11,15.11,0,0,0-2.8-9.34Q325.24,129.07,315.9,129.06Zm-19.42-23.78h10.58a4.71,4.71,0,0,1,3.55,1.24,5.26,5.26,0,0,1,1.18,3.74v3.49a5.22,5.22,0,0,1-1.18,3.73,4.68,4.68,0,0,1-3.55,1.25H296.48Zm0,32.62h16.18a4.82,4.82,0,0,1,3.55,1.19,5,5,0,0,1,1.19,3.67v4.85a5.23,5.23,0,0,1-1.19,3.74,4.67,4.67,0,0,1-3.55,1.24H296.48Z"/><path class="cls-3" d="M423,188.58H359.61a4.94,4.94,0,0,1-5.73-5.73V102.17a7.58,7.58,0,0,1,.43-2.74,4.63,4.63,0,0,1,1.31-1.87L371.68,84a5.06,5.06,0,0,1,1.68-.81,8.12,8.12,0,0,1,2.31-.31H395a4.94,4.94,0,0,1,5.73,5.73v50.67l.24-.25L417,125.45a4.87,4.87,0,0,1,1.68-.81,8.36,8.36,0,0,1,2.3-.31h18.06a4.94,4.94,0,0,1,5.72,5.73v39.22a7.61,7.61,0,0,1-.43,2.74,4.63,4.63,0,0,1-1.31,1.87l-16.19,13.44a4.05,4.05,0,0,1-1.55.88A6.91,6.91,0,0,1,423,188.58Zm16.07-14.82a3.84,3.84,0,0,0,4.48-4.48V130.06a3.83,3.83,0,0,0-4.48-4.48H421a3.83,3.83,0,0,0-4.48,4.48v20.17H399.45V88.6A3.84,3.84,0,0,0,395,84.11h-19.3a3.83,3.83,0,0,0-4.48,4.49v80.68a3.83,3.83,0,0,0,4.48,4.48Zm-54.29-11.2V95.32H386v66h43.33V136.78h1.25v25.78Z"/><path class="cls-3" d="M523.84,182.6q-4.37,3.74-12.2,5.79t-20.17,2.06q-12.21,0-20-2.56a31.55,31.55,0,0,1-12.2-6.78,22.38,22.38,0,0,1-6.1-9.71,38.42,38.42,0,0,1-1.68-11.33V121.34a33.84,33.84,0,0,1,1.62-10.64,18,18,0,0,1,5.85-8.41l16.18-13.45q4.37-3.74,12.14-5.79t20.24-2a83.13,83.13,0,0,1,20,2q7.79,2,12.2,5.54a18,18,0,0,1,6,8.47,34.26,34.26,0,0,1,1.62,10.77v42.46a33.2,33.2,0,0,1-1.62,10.58,18.15,18.15,0,0,1-5.85,8.35Zm22.29-32.37V107.77a30.58,30.58,0,0,0-1.68-10.4,17.8,17.8,0,0,0-6-8q-4.29-3.36-11.83-5.23a81.55,81.55,0,0,0-19.11-1.87,82.44,82.44,0,0,0-19.18,1.87q-7.59,1.88-11.89,5.23a17.87,17.87,0,0,0-6,8,30.58,30.58,0,0,0-1.68,10.4v42.46a30.58,30.58,0,0,0,1.68,10.4,17.5,17.5,0,0,0,6,8q4.31,3.3,11.89,5.16a81.9,81.9,0,0,0,19.18,1.87,81,81,0,0,0,19.11-1.87,31.91,31.91,0,0,0,11.83-5.16,17.43,17.43,0,0,0,6-8A30.58,30.58,0,0,0,546.13,150.23Zm-13.58-2.86a15.36,15.36,0,0,1-5.35,12.14q-5.36,4.67-19.92,4.66t-19.8-4.66a15.55,15.55,0,0,1-5.23-12.14V110.63a15.55,15.55,0,0,1,5.23-12.14q5.24-4.67,19.8-4.67t19.92,4.67a15.36,15.36,0,0,1,5.35,12.14Zm-49,0a14.14,14.14,0,0,0,5,11.26q5,4.31,18.8,4.3t18.92-4.3a14,14,0,0,0,5.11-11.26V110.63a14,14,0,0,0-5.11-11.26q-5.1-4.31-18.92-4.3t-18.8,4.3a14.15,14.15,0,0,0-5,11.26Zm13.57-1.62v-33.5a5.24,5.24,0,0,1,1.87-4c1.24-1.12,4.1-1.69,8.59-1.69s7.34.57,8.59,1.69a5.27,5.27,0,0,1,1.87,4v33.5a5.4,5.4,0,0,1-1.87,4.17q-1.87,1.68-8.59,1.68t-8.59-1.68A5.37,5.37,0,0,1,497.07,145.75Zm1.24,0a4.61,4.61,0,0,0,.5,2.18,3.76,3.76,0,0,0,1.87,1.55V125.82a4.57,4.57,0,0,0-.5-2.17,3.23,3.23,0,0,0-1.87-1.44Z"/><path class="cls-3" d="M618,188.58H587.59q-16.32,0-24.1-8.47t-7.78-21.91v-35a32.46,32.46,0,0,1,2-11.89,21.4,21.4,0,0,1,5.86-8.41l16.18-13.57a25.5,25.5,0,0,1,9.84-4.85,54.16,54.16,0,0,1,14.07-1.62H634a4.94,4.94,0,0,1,5.73,5.73v15.06a7.6,7.6,0,0,1-.44,2.74,4.61,4.61,0,0,1-1.3,1.87l-16.19,13.45a4.16,4.16,0,0,1-1.56.87,6.81,6.81,0,0,1-2.3.37H602.65v21a4.06,4.06,0,0,0,1.62,3.68,8.74,8.74,0,0,0,4.73,1.06h25a4.93,4.93,0,0,1,5.73,5.72v14.82a7.6,7.6,0,0,1-.44,2.74,4.61,4.61,0,0,1-1.3,1.87l-16.19,13.44a4,4,0,0,1-1.56.88A6.81,6.81,0,0,1,618,188.58ZM634,173.76a3.83,3.83,0,0,0,4.48-4.48V154.46A3.83,3.83,0,0,0,634,150H609q-3.86,0-5.72-1.43a5.35,5.35,0,0,1-1.87-4.55V114.37a5.73,5.73,0,0,1,1.87-4.67q1.86-1.56,5.72-1.56h25a3.82,3.82,0,0,0,4.48-4.48V88.6A3.83,3.83,0,0,0,634,84.11H603.65q-15.57,0-23.1,6.29T573,109.64v38.72q0,13,7.53,19.18t23.1,6.22Zm-6.85-12.45v1.25H606.39q-12.07,0-16-3.74t-3.92-12.33V111.63q0-8.84,4-12.58t15.94-3.73h20.79v1.24H606.39q-11,0-14.82,3.43t-3.86,11.64v34.86q0,8.1,3.74,11.46t14.94,3.36Z"/><path class="cls-3" d="M692.8,173.89l-16.19,13.44a4.05,4.05,0,0,1-1.55.88,6.89,6.89,0,0,1-2.3.37h-19.3a4.94,4.94,0,0,1-5.73-5.73V102.17a7.58,7.58,0,0,1,.43-2.74,4.63,4.63,0,0,1,1.31-1.87L665.53,84a5.06,5.06,0,0,1,1.68-.81,8.12,8.12,0,0,1,2.31-.31h19.3a4.94,4.94,0,0,1,5.73,5.73V99.93c.24-.33.49-.69.74-1.06a3.75,3.75,0,0,1,.87-.94l16.07-13.57a5.65,5.65,0,0,1,2.17-1.12,10.68,10.68,0,0,1,2.93-.37h19.18c2.07,0,3.44.52,4.1,1.55s.58,2.47-.24,4.3l-12,27.39a15.92,15.92,0,0,1,10.71,5.73q4,4.86,4,12.33v35.11a7.6,7.6,0,0,1-.44,2.74,4.63,4.63,0,0,1-1.31,1.87l-16.18,13.44a4.18,4.18,0,0,1-1.56.88,6.89,6.89,0,0,1-2.3.37H702.14a4.94,4.94,0,0,1-5.73-5.73V158.57a3.47,3.47,0,0,0-.5-2,1.89,1.89,0,0,0-1.36-.87v13.57a7.6,7.6,0,0,1-.44,2.74A4.63,4.63,0,0,1,692.8,173.89Zm-4-.13a3.84,3.84,0,0,0,4.48-4.48V140.77h16.44a3.77,3.77,0,0,1,3,1.12,4.47,4.47,0,0,1,1,3.11v24.28a3.84,3.84,0,0,0,4.48,4.48h19.18a3.84,3.84,0,0,0,4.48-4.48V134.17q0-7.47-4.17-12a15.61,15.61,0,0,0-11.14-4.92l12.7-29c.58-1.33.62-2.34.12-3a3.31,3.31,0,0,0-2.86-1.06H717.33a7.12,7.12,0,0,0-3.86.94,6.25,6.25,0,0,0-2.36,3.17l-12.83,29h-5V88.6a3.84,3.84,0,0,0-4.48-4.49h-19.3A3.83,3.83,0,0,0,665,88.6v80.68a3.83,3.83,0,0,0,4.48,4.48Zm-9-11.2h-1.24V95.32h1.24v33.12h27l14.32-33.12h1.37l-14.32,33.12h5.11q7.59,0,11.33,2.86t3.73,9.34v21.92h-1.24V140.64c0-4-1.17-6.8-3.49-8.47s-5.77-2.49-10.33-2.49h-33.5Z"/><path class="cls-3" d="M317.71,56.49a11.63,11.63,0,0,1-.6,3.84,6.47,6.47,0,0,1-2.1,2.94,10.63,10.63,0,0,1-4.11,1.91,26.82,26.82,0,0,1-6.67.69,26.28,26.28,0,0,1-6.6-.69,10.72,10.72,0,0,1-4.1-1.91,6.41,6.41,0,0,1-2.07-2.94,12.19,12.19,0,0,1-.57-3.84V49a1.76,1.76,0,0,1,.39-1.27,1.73,1.73,0,0,1,1.26-.39h6.67A1.42,1.42,0,0,1,300.87,49v5.61a2.15,2.15,0,0,0,.58,1.54c.38.41,1.27.62,2.69.62a3.44,3.44,0,0,0,2.5-.62,2.25,2.25,0,0,0,.53-1.54V33.72a1.42,1.42,0,0,1,1.66-1.66h7.22a1.42,1.42,0,0,1,1.66,1.66ZM312.19,36.2V55.39a5.53,5.53,0,0,1-1.66,4.16q-1.65,1.59-6.21,1.59c-3.16,0-5.31-.53-6.46-1.57a5.37,5.37,0,0,1-1.73-4.18V51.75h-.46v3.64a7.85,7.85,0,0,0,.39,2.53,4.39,4.39,0,0,0,1.36,1.95,7,7,0,0,0,2.65,1.27,16.64,16.64,0,0,0,4.25.46c3.25,0,5.45-.59,6.6-1.75a6.11,6.11,0,0,0,1.73-4.46V36.2Z"/><path class="cls-3" d="M346.82,65.18H325.48a1.76,1.76,0,0,1-1.27-.39,1.73,1.73,0,0,1-.39-1.26V33.72a1.42,1.42,0,0,1,1.66-1.66h21.34a1.42,1.42,0,0,1,1.66,1.66V39.1a1.42,1.42,0,0,1-1.66,1.66H334.13V44.3h9A1.42,1.42,0,0,1,344.75,46v4.92a1.41,1.41,0,0,1-1.65,1.65h-9v4h12.69a1.42,1.42,0,0,1,1.66,1.66v5.38a1.42,1.42,0,0,1-1.66,1.65Zm-2.48-4.6h-15V48.67h11.31v-.46H329.3V36.66h15V36.2h-15.5V61h15.5Z"/><path class="cls-3" d="M362.46,65.18h-6.9a1.41,1.41,0,0,1-1.65-1.65V33.72a1.76,1.76,0,0,1,.39-1.27,1.73,1.73,0,0,1,1.26-.39h4.79a3.7,3.7,0,0,1,1.49.28,3.52,3.52,0,0,1,1.22,1L372,43.52v-9.8a1.76,1.76,0,0,1,.39-1.27,1.73,1.73,0,0,1,1.26-.39h6.9a1.42,1.42,0,0,1,1.66,1.66V63.53a1.73,1.73,0,0,1-.39,1.26,1.76,1.76,0,0,1-1.27.39h-6.9A1.41,1.41,0,0,1,372,63.53V57.87l-7.87-9.52V63.53a1.42,1.42,0,0,1-1.66,1.65ZM360,36.57a2.7,2.7,0,0,0-.37-.32.57.57,0,0,0-.32-.09.62.62,0,0,0-.37.13.5.5,0,0,0-.18.42V61h.46V36.8a.15.15,0,0,1,0-.09s0-.05.07-.05a.21.21,0,0,1,.11.05l.12.09,17.39,19.51V61h.46V36.2h-.46V55.62Z"/><path class="cls-3" d="M397.1,65.18h-6.9a1.73,1.73,0,0,1-1.26-.39,1.69,1.69,0,0,1-.4-1.26V33.72a1.43,1.43,0,0,1,1.66-1.66H395a3.7,3.7,0,0,1,1.49.28,3.61,3.61,0,0,1,1.22,1l8.92,10.21v-9.8a1.42,1.42,0,0,1,1.66-1.66h6.9a1.73,1.73,0,0,1,1.26.39,1.76,1.76,0,0,1,.39,1.27V63.53a1.41,1.41,0,0,1-1.65,1.65h-6.9a1.76,1.76,0,0,1-1.27-.39,1.73,1.73,0,0,1-.39-1.26V57.87l-7.86-9.52V63.53a1.73,1.73,0,0,1-.39,1.26A1.76,1.76,0,0,1,397.1,65.18Zm-2.48-28.61a3.48,3.48,0,0,0-.37-.32.57.57,0,0,0-.32-.09.6.6,0,0,0-.37.13.5.5,0,0,0-.18.42V61h.45V36.8a.16.16,0,0,1,0-.09.08.08,0,0,1,.07-.05.21.21,0,0,1,.11.05l.12.09,17.38,19.51V61H412V36.2h-.46V55.62Z"/><path class="cls-3" d="M440,65.18h-7.45a1.41,1.41,0,0,1-1.65-1.65V57.64l-7-9.43a9.16,9.16,0,0,1-1.41-2.48,11,11,0,0,1-.34-3.18V33.72a1.76,1.76,0,0,1,.39-1.27,1.73,1.73,0,0,1,1.26-.39h7.09a1.73,1.73,0,0,1,1.26.39,1.76,1.76,0,0,1,.39,1.27v7.54c0,.31,0,.63,0,1a1.94,1.94,0,0,0,.37,1L435,46.51a1.89,1.89,0,0,0,.49.59,1,1,0,0,0,.62.19h.46a1,1,0,0,0,.62-.19,1.75,1.75,0,0,0,.48-.59l2.12-3.31a2,2,0,0,0,.37-1c0-.34,0-.66,0-1V33.72a1.42,1.42,0,0,1,1.66-1.66h6.85a1.42,1.42,0,0,1,1.66,1.66v8.83a10.19,10.19,0,0,1-.37,3.18,10.85,10.85,0,0,1-1.38,2.48l-7,9.48v5.84a1.73,1.73,0,0,1-.39,1.26A1.76,1.76,0,0,1,440,65.18Zm-3.17-12a3.74,3.74,0,0,0,1.86-.46,5.15,5.15,0,0,0,1.54-1.47L444.8,45a3,3,0,0,0,.62-1.64c.05-.6.07-1.23.07-1.91V36.2H445v5.29c0,.65,0,1.27-.09,1.87a2.85,2.85,0,0,1-.55,1.49l-4.6,6.21a4.9,4.9,0,0,1-1.4,1.27,3.28,3.28,0,0,1-1.59.39h-1.24a3.75,3.75,0,0,1-1.57-.37,3.5,3.5,0,0,1-1.38-1.29l-4.46-6.21a3.32,3.32,0,0,1-.55-1.54,17.32,17.32,0,0,1-.09-1.82V36.2h-.46v5.29c0,.68,0,1.32.09,1.94a3.18,3.18,0,0,0,.6,1.61l4.46,6.21a5.15,5.15,0,0,0,1.54,1.47,3.67,3.67,0,0,0,1.82.46H436V61h.46V53.18Z"/><path class="cls-3" d="M474.29,65.18h-7.13a1.76,1.76,0,0,1-1.27-.39,1.73,1.73,0,0,1-.39-1.26V33.72a1.42,1.42,0,0,1,1.66-1.66h20.51a1.42,1.42,0,0,1,1.66,1.66v5.47a1.42,1.42,0,0,1-1.66,1.66H475.94v4.78h8a1.73,1.73,0,0,1,1.26.39,1.77,1.77,0,0,1,.39,1.27v5.52A1.43,1.43,0,0,1,484,54.47h-8v9.06a1.41,1.41,0,0,1-1.65,1.65ZM470.52,61H471V50.28h10.48v-.46H471V36.66h14.21V36.2H470.52Z"/><path class="cls-3" d="M502.67,65.18h-7.08a1.42,1.42,0,0,1-1.66-1.65V33.72a1.42,1.42,0,0,1,1.66-1.66H510.9c3.44,0,5.81.72,7.11,2.14a7.94,7.94,0,0,1,2,5.55v2.11a8.46,8.46,0,0,1-.58,3.29,3.52,3.52,0,0,1-2,2,6.07,6.07,0,0,1,4,2A6.78,6.78,0,0,1,523,53.77v9.76a1.69,1.69,0,0,1-.4,1.26,1.73,1.73,0,0,1-1.26.39h-7.13a1.73,1.73,0,0,1-1.26-.39,1.69,1.69,0,0,1-.4-1.26v-7a2.38,2.38,0,0,0-.39-1.5,1.65,1.65,0,0,0-1.35-.48h-6.44v9a1.69,1.69,0,0,1-.4,1.26A1.73,1.73,0,0,1,502.67,65.18ZM499.36,61V50.37h13a5.63,5.63,0,0,1,3.86,1.13,4.33,4.33,0,0,1,1.24,3.38V61h.46V54.88a4.74,4.74,0,0,0-1.38-3.66A6,6,0,0,0,512.38,50h-.51a3.24,3.24,0,0,0,2.21-1.87,9.24,9.24,0,0,0,.55-3.47V41.45a5.51,5.51,0,0,0-1.29-3.75,4.93,4.93,0,0,0-4-1.5H498.9V61Zm10-24.38A4.58,4.58,0,0,1,513,38a5,5,0,0,1,1.17,3.45v3.22a6.73,6.73,0,0,1-1,3.91q-1,1.38-3.81,1.38h-10V36.66Zm-5.06,3.68v5.89h3.45a1.83,1.83,0,0,0,1.61-.62,2.76,2.76,0,0,0,.41-1.54V42.5a2.78,2.78,0,0,0-.41-1.54,1.83,1.83,0,0,0-1.61-.62Z"/><path class="cls-3" d="M555.94,56.49a11.37,11.37,0,0,1-.62,3.84,6.43,6.43,0,0,1-2.21,2.94,11.76,11.76,0,0,1-4.37,1.91,30.08,30.08,0,0,1-7.06.69,30.41,30.41,0,0,1-7.09-.69,11.72,11.72,0,0,1-4.39-1.91A6.43,6.43,0,0,1,528,60.33a11.37,11.37,0,0,1-.62-3.84V40.8A11.37,11.37,0,0,1,528,37a6.53,6.53,0,0,1,2.21-3,11.56,11.56,0,0,1,4.39-1.94,30.41,30.41,0,0,1,7.09-.69,30.08,30.08,0,0,1,7.06.69A11.6,11.6,0,0,1,553.11,34a6.53,6.53,0,0,1,2.21,3,11.37,11.37,0,0,1,.62,3.84Zm-5-1.06V41.86a5.68,5.68,0,0,0-2-4.48c-1.32-1.15-3.78-1.73-7.36-1.73s-6,.58-7.32,1.73a5.71,5.71,0,0,0-1.93,4.48V55.43a5.73,5.73,0,0,0,1.93,4.49q1.93,1.72,7.32,1.72c3.58,0,6-.57,7.36-1.72A5.7,5.7,0,0,0,550.92,55.43Zm-18.12,0V41.86a5.21,5.21,0,0,1,1.84-4.16c1.23-1.06,3.54-1.59,7-1.59s5.73.53,7,1.59a5.19,5.19,0,0,1,1.88,4.16V55.43a5.17,5.17,0,0,1-1.88,4.16q-1.89,1.59-7,1.59c-3.41,0-5.72-.53-7-1.59A5.2,5.2,0,0,1,532.8,55.43Zm5-.6a2,2,0,0,0,.69,1.54q.69.63,3.18.63c1.65,0,2.71-.21,3.17-.63a2,2,0,0,0,.69-1.54V42.46a2,2,0,0,0-.69-1.5c-.46-.41-1.52-.62-3.17-.62s-2.72.21-3.18.62a2,2,0,0,0-.69,1.5Z"/><path class="cls-3" d="M570.29,65.18h-6.85a1.42,1.42,0,0,1-1.66-1.65V33.72a1.42,1.42,0,0,1,1.66-1.66h7.4a2.11,2.11,0,0,1,1.22.33,3,3,0,0,1,.9,1l4.14,7.5a3.11,3.11,0,0,0,.39.6.56.56,0,0,0,.44.18h.41a.57.57,0,0,0,.44-.18,4.49,4.49,0,0,0,.39-.6l4.09-7.5a3,3,0,0,1,.9-1,2.11,2.11,0,0,1,1.22-.33h7.45a1.42,1.42,0,0,1,1.66,1.66V63.53a1.73,1.73,0,0,1-.39,1.26,1.77,1.77,0,0,1-1.27.39h-7.08a1.42,1.42,0,0,1-1.66-1.65V47.33l-2.71,5a2.86,2.86,0,0,1-1,1.13,2.8,2.8,0,0,1-1.45.34H577.1a2.78,2.78,0,0,1-1.45-.34,2.86,2.86,0,0,1-1-1.13l-2.71-5v16.2a1.73,1.73,0,0,1-.39,1.26A1.77,1.77,0,0,1,570.29,65.18ZM578,47.47a1.6,1.6,0,0,1-1.19-.37,10.31,10.31,0,0,1-1.15-1.56L570,37a1.46,1.46,0,0,0-.64-.62,1.93,1.93,0,0,0-.74-.16h-.78a1.1,1.1,0,0,0-.89.35,1.62,1.62,0,0,0-.3,1.08V61h.46V37.63a1.6,1.6,0,0,1,.13-.67.6.6,0,0,1,.6-.3h.69a1.72,1.72,0,0,1,.58.09,1.3,1.3,0,0,1,.53.56l5.61,8.46a13.42,13.42,0,0,0,1.26,1.7,2.52,2.52,0,0,0,2.9,0,14.26,14.26,0,0,0,1.27-1.7l5.61-8.46a1.34,1.34,0,0,1,.5-.56,1.57,1.57,0,0,1,.56-.09h.69a.65.65,0,0,1,.62.3,1.47,1.47,0,0,1,.16.67V61h.46V37.63a1.62,1.62,0,0,0-.3-1.08,1.18,1.18,0,0,0-.94-.35h-.79a1.79,1.79,0,0,0-.71.16,1.53,1.53,0,0,0-.62.62l-5.61,8.56a11.07,11.07,0,0,1-1.15,1.56A1.64,1.64,0,0,1,578,47.47Z"/><path class="cls-3" d="M626.36,65.18h-7.45a1.41,1.41,0,0,1-1.65-1.65V40.94h-6.77a1.41,1.41,0,0,1-1.65-1.65V33.72a1.76,1.76,0,0,1,.39-1.27,1.73,1.73,0,0,1,1.26-.39h24.29a1.42,1.42,0,0,1,1.66,1.66v5.57a1.73,1.73,0,0,1-.39,1.26,1.76,1.76,0,0,1-1.27.39H628V63.53a1.42,1.42,0,0,1-1.66,1.65Zm-4-4.14h.46V36.66h9.43V36.2H613v.46h9.43Z"/><path class="cls-3" d="M649.69,65.18h-7.13a1.42,1.42,0,0,1-1.66-1.65V33.72a1.42,1.42,0,0,1,1.66-1.66h7.13a1.73,1.73,0,0,1,1.26.39,1.76,1.76,0,0,1,.39,1.27v10H659v-10a1.43,1.43,0,0,1,1.66-1.66h7.13a1.73,1.73,0,0,1,1.26.39,1.76,1.76,0,0,1,.4,1.27V63.53a1.43,1.43,0,0,1-1.66,1.65h-7.13a1.71,1.71,0,0,1-1.26-.39,1.69,1.69,0,0,1-.4-1.26V53.31h-7.68V63.53a1.41,1.41,0,0,1-1.65,1.65ZM645.87,61h.46V48.85H664V61h.46V36.2H664V48.39H646.33V36.2h-.46Z"/><path class="cls-3" d="M698.81,65.18H677.47a1.76,1.76,0,0,1-1.27-.39,1.73,1.73,0,0,1-.39-1.26V33.72a1.42,1.42,0,0,1,1.66-1.66h21.34a1.42,1.42,0,0,1,1.66,1.66V39.1a1.42,1.42,0,0,1-1.66,1.66H686.12V44.3h9A1.42,1.42,0,0,1,696.74,46v4.92a1.41,1.41,0,0,1-1.65,1.65h-9v4h12.69a1.42,1.42,0,0,1,1.66,1.66v5.38a1.73,1.73,0,0,1-.39,1.26A1.76,1.76,0,0,1,698.81,65.18Zm-2.48-4.6h-15V48.67H692.6v-.46H681.29V36.66h15V36.2h-15.5V61h15.5Z"/></g></svg>