<svg xmlns="http://www.w3.org/2000/svg" xmlns:xlink="http://www.w3.org/1999/xlink" viewBox="0 0 200 150"><defs><style>.cls-1,.cls-2{stroke:#000;stroke-miterlimit:10;}.cls-1{fill:url(#linear-gradient);}.cls-2{fill:url(#linear-gradient-2);}.cls-3{fill:#2e7fad;}.cls-4{fill:#fff;}</style><linearGradient id="linear-gradient" x1="186" y1="74.75" x2="101.5" y2="74.75" gradientUnits="userSpaceOnUse"><stop offset="0" stop-color="#ccc"/><stop offset="1" stop-color="#666"/></linearGradient><linearGradient id="linear-gradient-2" x1="17" y1="74.75" x2="101.5" y2="74.75" xlink:href="#linear-gradient"/></defs><title>block-logos</title><g id="Layer_7" data-name="Layer 7"><polygon class="cls-1" points="101.5 143.12 186 109.05 186 40.62 101.5 6.38 101.5 143.12"/><polygon class="cls-2" points="101.5 143.12 17 109.05 17 40.62 101.5 6.38 101.5 143.12"/><path class="cls-3" d="M73.17,123.18,28,109.67a7.22,7.22,0,0,1-3.24-1.75,3.87,3.87,0,0,1-1-2.77V46.69a4.13,4.13,0,0,1,1-2.83A7.68,7.68,0,0,1,28,42L65.52,28.73c7.69-2.71,13.38-3,17.06-.63,3.69,2.5,5.54,7.67,5.54,15.39v7.12A27.26,27.26,0,0,1,86.41,61a12.77,12.77,0,0,1-5.24,6.18c5,.23,8.75,2.17,11.18,5.89S96,82.61,96,90.18v14.31c0,8.71-1.86,14.7-5.59,17.82C86.68,125.25,80.94,125.5,73.17,123.18ZM36.8,103.12,68.46,110a24.92,24.92,0,0,0,8,.71,7.18,7.18,0,0,0,6.83-6.06,26,26,0,0,0,.59-5.76V89.65A39.47,39.47,0,0,0,83.35,83a12.13,12.13,0,0,0-2.18-5.25,10,10,0,0,0-4.71-3.28,22.06,22.06,0,0,0-7.88-.9q5.06-1.65,6.3-5.13a23,23,0,0,0,1.23-7.65V52a24.15,24.15,0,0,0-.59-5.52,8.06,8.06,0,0,0-2.23-4.05,7.94,7.94,0,0,0-4.71-1.87,23.23,23.23,0,0,0-7.88,1L36.8,48ZM60.7,42.79c5.88-1.54,9.72-1.31,11.53.74s2.7,5,2.7,8.64v8.74a26.13,26.13,0,0,1-.41,4.74,8.62,8.62,0,0,1-1.88,4.06,10.34,10.34,0,0,1-4.3,2.87,24.31,24.31,0,0,1-7.64,1.24L38,74.61V48.74Zm7.88,32.07c5.88-.15,9.71,1.15,11.47,3.94A20.16,20.16,0,0,1,82.7,89.57v9.18c0,3.93-.9,6.91-2.7,8.9s-5.65,2.28-11.54,1L38,102.35V75.64ZM50.22,53.52V65.86l10-1a4.73,4.73,0,0,0,3.36-1.6,6.18,6.18,0,0,0,1.12-3.94V55.74a4.83,4.83,0,0,0-1.12-3.6,3.65,3.65,0,0,0-3.36-.6Zm0,29.92V96.91l15.3,2.22a3.68,3.68,0,0,0,3.35-.82A5.37,5.37,0,0,0,70,94.5V89.35a5.93,5.93,0,0,0-1.12-3.95A4.39,4.39,0,0,0,65.52,84Z"/><path d="M140.5,67H111.1a2.07,2.07,0,0,1-1.59-.52,2.38,2.38,0,0,1-.49-1.68V25.2a2.06,2.06,0,0,1,.49-1.59,1.83,1.83,0,0,1,1.59-.2l9,1.76a2.67,2.67,0,0,1,1.59.8,2.53,2.53,0,0,1,.49,1.68V56.1l7.92.41v-9a1.85,1.85,0,0,1,.49-1.47,2,2,0,0,1,1.58-.3l8.38.88a2.6,2.6,0,0,1,1.59.61,2,2,0,0,1,.49,1.48V65.1a1.83,1.83,0,0,1-.49,1.43A2.38,2.38,0,0,1,140.5,67Zm-25.19-5.34,21.26.52V51.07L136,51V61.6l-20.11-.55V29.68l-.58-.1Z"/><path class="cls-4" d="M179.38,63.17a6.69,6.69,0,0,1-.69,3.06,5.65,5.65,0,0,1-2.42,2.34,15.91,15.91,0,0,1-4.8,1.54,43.49,43.49,0,0,1-7.76.58,40,40,0,0,1-7.79-.63,14.13,14.13,0,0,1-4.83-1.79,6.22,6.22,0,0,1-2.42-2.79,9.33,9.33,0,0,1-.69-3.64V47a8.52,8.52,0,0,1,.69-3.53,5.1,5.1,0,0,1,2.42-2.44A12.18,12.18,0,0,1,155.92,40a40.45,40.45,0,0,1,7.79.58,46.67,46.67,0,0,1,7.76,1.79,18.21,18.21,0,0,1,4.8,2.31,7.11,7.11,0,0,1,2.42,2.73,7.38,7.38,0,0,1,.69,3.17Zm-5.51-1.11V50.84a5,5,0,0,0-2.18-4c-1.45-1.16-4.14-2-8.09-2.55s-6.62-.38-8,.48a4.23,4.23,0,0,0-2.13,3.84V61.1a5,5,0,0,0,2.13,4.17q2.12,1.62,8,1.72c4,.08,6.64-.35,8.09-1.28A4.17,4.17,0,0,0,173.87,62.06ZM154,61.12V48.69a3.86,3.86,0,0,1,2-3.56q2-1.17,7.63-.42t7.69,2.36a4.6,4.6,0,0,1,2.07,3.72V62a3.84,3.84,0,0,1-2.07,3.4q-2.07,1.27-7.69,1.16T156,65A4.62,4.62,0,0,1,154,61.12Zm5.51-.27a1.72,1.72,0,0,0,.76,1.4,7,7,0,0,0,3.49.69q2.73.12,3.48-.39a1.48,1.48,0,0,0,.76-1.28V50.71a1.75,1.75,0,0,0-.76-1.36,7.69,7.69,0,0,0-3.48-.93c-1.82-.21-3-.16-3.49.15a1.41,1.41,0,0,0-.76,1.25Z"/><path class="cls-4" d="M139.88,118.65l-15.42,3.66c-5.26,1.25-9.17,1-11.72-.67s-3.82-5.12-3.82-10V89.76c0-4.88,1.27-8.54,3.82-10.93s6.46-3.49,11.72-3.49h15.42a2.48,2.48,0,0,1,1.73.5,2.15,2.15,0,0,1,.54,1.63v7.19a2.27,2.27,0,0,1-.54,1.67,2.58,2.58,0,0,1-1.73.62l-12.7.8a4.62,4.62,0,0,0-2.91,1,3.28,3.28,0,0,0-.94,2.52V106.9a2.42,2.42,0,0,0,.94,2.23,4.29,4.29,0,0,0,2.91.25l12.7-2.22a2.23,2.23,0,0,1,1.73.2,1.85,1.85,0,0,1,.54,1.54V116a2.61,2.61,0,0,1-.54,1.76A3.13,3.13,0,0,1,139.88,118.65Zm-3.48-5.3-10.55,2.15q-5.68,1.17-7.58-.26t-1.89-5.88v-19c0-3,.65-5.13,2-6.43s3.82-2,7.52-2.1l10.55-.34v-.62l-10.55.32c-4,.12-6.74.87-8.08,2.26s-2,3.74-2,7v19.07c0,3.14.67,5.26,2,6.35s4,1.19,8.12.34L136.4,114Z"/><path d="M157.51,110.8l-7.94,2.89a1.64,1.64,0,0,1-1.41.08c-.29-.19-.43-.62-.43-1.29V78.17a2.07,2.07,0,0,1,.43-1.46,1.94,1.94,0,0,1,1.41-.44h7.94a2,2,0,0,1,1.41.4,1.66,1.66,0,0,1,.44,1.29V88.78l2-.27,5.27-10.81a2.3,2.3,0,0,1,1-1.11,3.36,3.36,0,0,1,1.59-.32h7.88a1.65,1.65,0,0,1,1.18.32c.21.22.19.53-.05.94L173,87.06a6.81,6.81,0,0,1,4.58,1,3.83,3.83,0,0,1,1.72,3.41v10.64a1.62,1.62,0,0,1-.44,1.17,3.2,3.2,0,0,1-1.41.77l-7.89,2.59a1.92,1.92,0,0,1-1.4.11c-.3-.15-.44-.49-.44-1V97.3a1.15,1.15,0,0,0-.41-1,1.51,1.51,0,0,0-1.23-.12l-6.76,1.48v10.78a2.27,2.27,0,0,1-.44,1.44A3.11,3.11,0,0,1,157.51,110.8Zm-3.68-3.16V94.5L167.61,92a8.29,8.29,0,0,1,4.25.1,2.38,2.38,0,0,1,1.43,2.5v7.12l.51-.15V94.52a2.69,2.69,0,0,0-1.53-2.75,8.68,8.68,0,0,0-4.66-.17l-2.1.36,5.89-12-.57,0-5.89,12-11.11,2V80.75l-.52,0v27Z"/></g></svg>