<svg xmlns="http://www.w3.org/2000/svg" viewBox="0 0 764 221"><defs><style>.cls-1{fill:#2e7fad;}</style></defs><title>block-logos-mini</title><g id="Layer_8" data-name="Layer 8"><polyline class="cls-1" points="124.52 18 15.95 49.67 15.95 162.76 120 208 122.26 94.91 22.74 53.06"/><polyline class="cls-1" points="115.48 18 224.05 49.67 224.05 162.76 120 208 117.74 94.91 217.26 53.06"/><path d="M256.88,158.58a4.94,4.94,0,0,1-5.72-5.73V72.17a7.58,7.58,0,0,1,.43-2.74,4.63,4.63,0,0,1,1.31-1.87L269,54a4.87,4.87,0,0,1,1.68-.81,8.07,8.07,0,0,1,2.31-.31h39.71q13,0,19.06,5t6.1,15.25v6a21,21,0,0,1-1.19,7.47,11.23,11.23,0,0,1-3.55,5l-.37.25a15.8,15.8,0,0,1,10.09,6.41q3.36,4.92,3.36,13.64v11.45a25.88,25.88,0,0,1-1.62,9.65,17,17,0,0,1-4.86,6.79l-16.06,13.57a20.5,20.5,0,0,1-7.84,3.92,41.94,41.94,0,0,1-11.08,1.31Zm63.88-14.82q12.33,0,18.24-5t5.91-15.44V111.89q0-9.09-3.86-13.82t-11.82-5.48a11.16,11.16,0,0,0,5.54-4.92,17.73,17.73,0,0,0,1.8-8.53v-6q0-9.7-5.85-14.38t-18.06-4.67H273a4.74,4.74,0,0,0-3.43,1.06,4.7,4.7,0,0,0-1.06,3.43v80.68a3.84,3.84,0,0,0,4.49,4.48Zm-5-11.2h-33.5V65.32h25.28a27.25,27.25,0,0,1,8.34,1.06,11.9,11.9,0,0,1,5,2.86,9.49,9.49,0,0,1,2.37,4.17,20.27,20.27,0,0,1,.62,5.11v8a17.3,17.3,0,0,1-1.31,6.84c-.87,2.08-3.09,3.57-6.66,4.49a27.21,27.21,0,0,1,8.34,1.06,11.33,11.33,0,0,1,5,3,9.71,9.71,0,0,1,2.3,4.55,27.56,27.56,0,0,1,.56,5.73v8a19.57,19.57,0,0,1-.62,5.05,8.45,8.45,0,0,1-2.31,3.92,11.6,11.6,0,0,1-4.92,2.55A31,31,0,0,1,315.78,132.56Zm-8.22-66h-24V97.82h24a27.77,27.77,0,0,0,8.09-.94,10.88,10.88,0,0,0,4.55-2.49,7.05,7.05,0,0,0,2-3.61,20.67,20.67,0,0,0,.44-4.29v-8a12.93,12.93,0,0,0-2.87-8.47Q316.9,66.57,307.56,66.56Zm8.34,32.5H283.53v32.25h32.25q9.33,0,12.2-3.05a11.42,11.42,0,0,0,2.86-8.16v-8a15.11,15.11,0,0,0-2.8-9.34Q325.24,99.07,315.9,99.06ZM296.48,75.28h10.58a4.71,4.71,0,0,1,3.55,1.24,5.26,5.26,0,0,1,1.18,3.74v3.49a5.22,5.22,0,0,1-1.18,3.73,4.68,4.68,0,0,1-3.55,1.25H296.48Zm0,32.62h16.18a4.82,4.82,0,0,1,3.55,1.19,5,5,0,0,1,1.19,3.67v4.85a5.23,5.23,0,0,1-1.19,3.74,4.67,4.67,0,0,1-3.55,1.24H296.48Z"/><path d="M423,158.58H359.61a4.94,4.94,0,0,1-5.73-5.73V72.17a7.58,7.58,0,0,1,.43-2.74,4.63,4.63,0,0,1,1.31-1.87L371.68,54a5.06,5.06,0,0,1,1.68-.81,8.12,8.12,0,0,1,2.31-.31H395a6,6,0,0,1,4.36,1.37,6,6,0,0,1,1.37,4.36v50.67l.24-.25L417,95.45a4.87,4.87,0,0,1,1.68-.81,8.36,8.36,0,0,1,2.3-.31h18.06a4.94,4.94,0,0,1,5.72,5.73v39.22a7.61,7.61,0,0,1-.43,2.74,4.63,4.63,0,0,1-1.31,1.87l-16.19,13.44a4.05,4.05,0,0,1-1.55.88A6.91,6.91,0,0,1,423,158.58Zm16.07-14.82a3.84,3.84,0,0,0,4.48-4.48V100.06a3.83,3.83,0,0,0-4.48-4.48H421a3.83,3.83,0,0,0-4.48,4.48v20.17H399.45V58.6a4.7,4.7,0,0,0-1.06-3.43A4.71,4.71,0,0,0,395,54.11h-19.3a4.74,4.74,0,0,0-3.43,1.06,4.74,4.74,0,0,0-1.05,3.43v80.68a3.83,3.83,0,0,0,4.48,4.48Zm-54.29-11.2V65.32H386v66h43.33V106.78h1.25v25.78Z"/><path d="M523.84,152.6q-4.37,3.74-12.2,5.79t-20.17,2.06q-12.21,0-20-2.56a31.55,31.55,0,0,1-12.2-6.78,22.38,22.38,0,0,1-6.1-9.71,38.42,38.42,0,0,1-1.68-11.33V91.34a33.84,33.84,0,0,1,1.62-10.64A18,18,0,0,1,459,72.29l16.18-13.45q4.37-3.73,12.14-5.79t20.24-2a83.13,83.13,0,0,1,20,2q7.79,2,12.2,5.54a18,18,0,0,1,6,8.47,34.26,34.26,0,0,1,1.62,10.77v42.46a33.2,33.2,0,0,1-1.62,10.58,18.15,18.15,0,0,1-5.85,8.35Zm22.29-32.37V77.77a30.58,30.58,0,0,0-1.68-10.4,17.8,17.8,0,0,0-6-8q-4.29-3.36-11.83-5.23a81.55,81.55,0,0,0-19.11-1.87,82.44,82.44,0,0,0-19.18,1.87q-7.59,1.88-11.89,5.23a17.87,17.87,0,0,0-6,8,30.58,30.58,0,0,0-1.68,10.4v42.46a30.58,30.58,0,0,0,1.68,10.4,17.5,17.5,0,0,0,6,8q4.31,3.3,11.89,5.16a81.9,81.9,0,0,0,19.18,1.87,81,81,0,0,0,19.11-1.87,31.91,31.91,0,0,0,11.83-5.16,17.43,17.43,0,0,0,6-8A30.58,30.58,0,0,0,546.13,120.23Zm-13.58-2.86a15.36,15.36,0,0,1-5.35,12.14q-5.36,4.67-19.92,4.66t-19.8-4.66a15.55,15.55,0,0,1-5.23-12.14V80.63a15.55,15.55,0,0,1,5.23-12.14q5.24-4.66,19.8-4.67t19.92,4.67a15.36,15.36,0,0,1,5.35,12.14Zm-49,0a14.14,14.14,0,0,0,5,11.26q5,4.31,18.8,4.3t18.92-4.3a14,14,0,0,0,5.11-11.26V80.63a14,14,0,0,0-5.11-11.26q-5.1-4.31-18.92-4.3t-18.8,4.3a14.15,14.15,0,0,0-5,11.26Zm13.57-1.62V82.25a5.24,5.24,0,0,1,1.87-4c1.24-1.12,4.1-1.69,8.59-1.69s7.34.57,8.59,1.69a5.27,5.27,0,0,1,1.87,4v33.5a5.4,5.4,0,0,1-1.87,4.17q-1.87,1.68-8.59,1.68t-8.59-1.68A5.37,5.37,0,0,1,497.07,115.75Zm1.24,0a4.61,4.61,0,0,0,.5,2.18,3.76,3.76,0,0,0,1.87,1.55V95.82a4.57,4.57,0,0,0-.5-2.17,3.23,3.23,0,0,0-1.87-1.44Z"/><path d="M618,158.58H587.59q-16.32,0-24.1-8.47t-7.78-21.91v-35a32.46,32.46,0,0,1,2-11.89,21.4,21.4,0,0,1,5.86-8.41l16.18-13.57a25.5,25.5,0,0,1,9.84-4.85,54.16,54.16,0,0,1,14.07-1.62H634a5.94,5.94,0,0,1,4.36,1.37,6,6,0,0,1,1.37,4.36V73.66a7.6,7.6,0,0,1-.44,2.74,4.61,4.61,0,0,1-1.3,1.87L621.83,91.72a4.16,4.16,0,0,1-1.56.87A6.81,6.81,0,0,1,618,93H602.65v21a4.06,4.06,0,0,0,1.62,3.68,8.74,8.74,0,0,0,4.73,1.06h25a4.93,4.93,0,0,1,5.73,5.72v14.82a7.6,7.6,0,0,1-.44,2.74,4.61,4.61,0,0,1-1.3,1.87l-16.19,13.44a4,4,0,0,1-1.56.88A6.81,6.81,0,0,1,618,158.58ZM634,143.76a3.83,3.83,0,0,0,4.48-4.48V124.46A3.83,3.83,0,0,0,634,120H609q-3.86,0-5.72-1.43a5.35,5.35,0,0,1-1.87-4.55V84.37a5.73,5.73,0,0,1,1.87-4.67q1.86-1.56,5.72-1.56h25a3.82,3.82,0,0,0,4.48-4.48V58.6a4.74,4.74,0,0,0-1-3.43A4.74,4.74,0,0,0,634,54.11H603.65q-15.57,0-23.1,6.29T573,79.64v38.72q0,13,7.53,19.18t23.1,6.22Zm-6.85-12.45v1.25H606.39q-12.07,0-16-3.74t-3.92-12.33V81.63q0-8.84,4-12.58t15.94-3.73h20.79v1.24H606.39q-11,0-14.82,3.43t-3.86,11.64v34.86q0,8.1,3.74,11.46t14.94,3.36Z"/><path d="M692.8,143.89l-16.19,13.44a4.05,4.05,0,0,1-1.55.88,6.89,6.89,0,0,1-2.3.37h-19.3a4.94,4.94,0,0,1-5.73-5.73V72.17a7.58,7.58,0,0,1,.43-2.74,4.63,4.63,0,0,1,1.31-1.87L665.53,54a5.06,5.06,0,0,1,1.68-.81,8.12,8.12,0,0,1,2.31-.31h19.3a6,6,0,0,1,4.36,1.37,6,6,0,0,1,1.37,4.36V69.93c.24-.33.49-.69.74-1.06a3.75,3.75,0,0,1,.87-.94l16.07-13.57a5.65,5.65,0,0,1,2.17-1.12,10.68,10.68,0,0,1,2.93-.37h19.18c2.07,0,3.44.52,4.1,1.55s.58,2.47-.24,4.3l-12,27.39a15.92,15.92,0,0,1,10.71,5.73q4,4.86,4,12.33v35.11a7.6,7.6,0,0,1-.44,2.74,4.63,4.63,0,0,1-1.31,1.87l-16.18,13.44a4.18,4.18,0,0,1-1.56.88,6.89,6.89,0,0,1-2.3.37H702.14a4.94,4.94,0,0,1-5.73-5.73V128.57a3.47,3.47,0,0,0-.5-2,1.89,1.89,0,0,0-1.36-.87v13.57a7.6,7.6,0,0,1-.44,2.74A4.63,4.63,0,0,1,692.8,143.89Zm-4-.13a3.84,3.84,0,0,0,4.48-4.48V110.77h16.44a3.77,3.77,0,0,1,3,1.12,4.47,4.47,0,0,1,1,3.11v24.28a3.84,3.84,0,0,0,4.48,4.48h19.18a3.84,3.84,0,0,0,4.48-4.48V104.17q0-7.47-4.17-12a15.61,15.61,0,0,0-11.14-4.92l12.7-29c.58-1.33.62-2.34.12-3a3.31,3.31,0,0,0-2.86-1.06H717.33a7.12,7.12,0,0,0-3.86.94,6.25,6.25,0,0,0-2.36,3.17l-12.83,29h-5V58.6a4.7,4.7,0,0,0-1.06-3.43,4.71,4.71,0,0,0-3.42-1.06h-19.3a4.74,4.74,0,0,0-3.43,1.06A4.74,4.74,0,0,0,665,58.6v80.68a3.83,3.83,0,0,0,4.48,4.48Zm-9-11.2h-1.24V65.32h1.24V98.44h27l14.32-33.12h1.37L708.24,98.44h5.11q7.59,0,11.33,2.86t3.73,9.34v21.92h-1.24V110.64c0-4-1.17-6.8-3.49-8.47s-5.77-2.49-10.33-2.49h-33.5Z"/></g></svg>